HIERARCHY
ROOT Hips
{
    OFFSET 0.0 0.0 0.0
    CHANNELS 6 Xposition Yposition Zposition Zrotation Xrotation Yrotation
    JOINT Spine
    {
        OFFSET 0.0 24.99717550194369 0.0
        CHANNELS 3 Zrotation Xrotation Yrotation
        JOINT Chest
        {
            OFFSET 0.0 24.997175501943687 0.0
            CHANNELS 3 Zrotation Xrotation Yrotation
            JOINT Head
            {
                OFFSET 0.0 18.14695978361579 0.0
                CHANNELS 3 Zrotation Xrotation Yrotation
            }
            JOINT LeftUpperArm
            {
                OFFSET 16.4291351110527 0.0 0.0
                CHANNELS 3 Zrotation Xrotation Yrotation
                JOINT LeftLowerArm
                {
                    OFFSET 23.871829223782157 0.0 0.0
                    CHANNELS 3 Zrotation Xrotation Yrotation
                    JOINT LeftHand
                    {
                        OFFSET 23.021051914356576 0.0 0.0
                        CHANNELS 3 Zrotation Xrotation Yrotation
                    }
                    End Site
                    {
                    OFFSET 6.517608341232653 0.0 0.0
                    }
                }
            }
            JOINT RightUpperArm
            {
                OFFSET -16.4291351110527 0.0 0.0
                CHANNELS 3 Zrotation Xrotation Yrotation
                JOINT RightLowerArm
                {
                    OFFSET 23.871829223782157 0.0 0.0
                    CHANNELS 3 Zrotation Xrotation Yrotation
                    JOINT RightHand
                    {
                        OFFSET 23.021051914356576 0.0 0.0
                        CHANNELS 3 Zrotation Xrotation Yrotation
                    }
                    End Site
                    {
                    OFFSET 6.517608341232653 0.0 0.0
                    }
                }
            }
        }
    }
    JOINT LeftUpperLeg
    {
        OFFSET 9.053016085917449 0.0 0.0
        CHANNELS 3 Zrotation Xrotation Yrotation
        JOINT LeftLowerLeg
        {
            OFFSET 37.82886434284703 0.0 0.0
            CHANNELS 3 Zrotation Xrotation Yrotation
            JOINT LeftFootAnkle
            {
                OFFSET 40.37157936307976 0.0 0.0
                CHANNELS 3 Zrotation Xrotation Yrotation
                End Site
                {
                OFFSET 11.283376939873094 0.0 0.0
                }
            }
        }
    }
    JOINT RightUpperLeg
    {
        OFFSET -9.053016085917449 0.0 0.0
        CHANNELS 3 Zrotation Xrotation Yrotation
        JOINT RightLowerLeg
        {
            OFFSET 37.82886434284703 0.0 0.0
            CHANNELS 3 Zrotation Xrotation Yrotation
            JOINT RightFootAnkle
            {
                OFFSET 40.37157936307976 0.0 0.0
                CHANNELS 3 Zrotation Xrotation Yrotation
                End Site
                {
                OFFSET 11.283376939873094 0.0 0.0
                }
            }
        }
    }
}
MOTION
Frames: 5
Frame Time: 0.03333333333333333
-0.13673777226311123 -0.19259780941782867 0.08224393816044466 -3.0853157382844847 14.540355800773561 14.261419248621635 -3.378787697238252 1.034325967456354 -13.29946613436855 -3.04570674323032 1.797502548814237 -13.343570216909406 -38.92918815594399 -5.025877434036761 -122.50065773650995 160.9656973233193 -57.03582722314469 150.7842742605245 -6.63827188926126 52.16334601308232 8.382880875502766 -24.61124519994418 -46.31228669051715 -30.991748318263014 110.37561379036485 -59.35178049696044 -100.18582630510278 2.5452296911713597 -6.356582924174596 21.875223277937152 33.12200707141009 26.454351414509695 164.978872690438 -151.81219627960252 -66.03370480301719 -66.55035083173081 -154.66936529018955 -10.839557796931604 180.0 -112.66877693922234 31.93863350372186 180.0 123.32982567497557 -65.61701902997083 -155.49998851647604 -162.35865859036252 -34.006676683114044 180.0 -89.35727469796255 -0.7406944804715117 180.0
-0.13983023739100225 -0.19012023597572159 0.08198114798489492 -3.0020360244038886 14.45331984814746 14.289038887502985 -3.1967387079076395 1.0077414905357143 -13.316510415199993 -2.874619561564326 1.7290822628815494 -13.357798528889047 -39.55921652180016 -5.230304014641301 -122.41104765970165 166.01801992989965 -51.37395375720024 155.67798877432168 -9.175858758268456 59.97381289511042 10.568208560563594 -25.399392199744316 -48.18758366183368 -33.42923855850848 109.64629902002439 -59.24089899281927 -100.6586675045183 2.5948118611652116 -6.398304480864572 22.13005055403211 34.323340597157696 27.189989408039413 163.38823687593657 -156.05483331672178 -69.85606510728196 -69.98538099748573 -154.3464605040276 -19.343514661864365 180.0 -112.28922734944669 32.38648903939909 180.0 118.86874994967128 -61.33689642398289 -159.49032986135583 -161.22488545879665 -42.8892612990909 180.0 -91.93719771798285 -4.7201511742868885 180.0
-0.14233766838732873 -0.18652764938306254 0.08233086902200494 -2.8901829237727497 14.397515879191408 14.385325560732282 -3.123465730696201 1.0303626389571952 -13.325867666345522 -2.797756381803057 1.7347481484188183 -13.368088597488015 -39.39827617843715 -6.050221485176303 -121.79165039152451 168.63543926725453 -47.061617437398105 158.1957696034895 -10.645178628882137 65.14602908844229 11.703111779261134 -25.129802177120506 -49.010209354155165 -33.965215383938705 112.61948701845726 -59.1688035374794 -97.9738315551922 4.217143407406732 -10.249203026143755 22.509695810282807 34.813673584803745 29.455632002315475 161.02558666019738 -159.47196389904383 -72.02104490391767 -72.59597597387007 -154.78121476152694 -21.994010829815835 180.0 -111.74749602595607 32.1973788124991 180.0 117.02322449637312 -59.487063891777744 -160.8980766379935 -160.56255727696788 -44.716961754496865 180.0 -92.65904229703355 -3.187662064368215 180.0
-0.14403050172340012 -0.18283023234101523 0.08239443126233756 -2.845017307737028 14.545067856631485 14.4200709383053 -3.113286158952445 1.0746584473952236 -13.156128604256997 -2.7825296602977367 1.7682365304633305 -13.201127293501939 -39.131377375418765 -6.793878012342283 -121.34088087401949 170.3437753478466 -44.664055511292105 159.99295703602456 -11.33307696560613 67.16836672644796 12.268433162997257 -24.298117365190958 -48.76116926447888 -33.43750164643209 116.72990254184523 -59.40635512728405 -94.94837526724044 5.605660778838579 -12.844110888529254 23.82264889821249 34.564094218095 30.270948601536407 159.95581159893393 -162.5583612501564 -72.25148488823575 -74.59839394257563 -154.84856528928114 -23.436257117989673 180.0 -112.95290312219467 32.42653860269182 180.0 116.70293402345847 -59.32305686005099 -160.81148531509655 -160.36982418775304 -45.91086491947658 180.0 -93.35204228197935 -4.456354186674376 180.0
-0.146013622775167 -0.1800415941345572 0.08244048999420506 -2.7307885170790533 14.451398608198692 14.440508192329812 -3.0050925589442663 1.0902830950031 -13.11057241112231 -2.6750583991794965 1.756448201661205 -13.15567190338445 -39.063757493905825 -7.811018601993612 -120.4221601800325 171.154996393365 -42.298304901299986 161.2693260780308 -12.431689753781919 69.82826227533586 13.216354079840347 -23.928103020763416 -48.6858636583748 -33.398962161413685 117.6707106667995 -59.4510354329564 -94.23614421243495 6.381279312174677 -14.212152619293528 24.490417373795324 34.685637526942756 30.754695185766135 159.259747784954 -163.65956454976993 -72.93766436359701 -74.54326901319331 -155.28211222373213 -24.617500470955324 180.0 -113.81343153112414 32.41860314156447 180.0 115.81567083056568 -59.08044865147294 -161.28682152934056 -160.39239141677373 -46.615423276043 180.0 -94.21446660783961 -4.674925993825502 180.0
